<?xml version="1.0" encoding="UTF-8"?><svg id="_レイヤー_2" xmlns="http://www.w3.org/2000/svg" width="1914.515" height="560" xmlns:xlink="http://www.w3.org/1999/xlink" viewBox="0 0 1914.515 560"><defs><style>.cls-1{fill:none;}.cls-2{clip-path:url(#clippath);}.cls-3{fill:#eee;}.cls-4{fill:#eeaf18;}.cls-5,.cls-6{fill:#fff;}.cls-7{fill:#d2689e;}.cls-8{fill:#e3007f;}.cls-6{opacity:.2;}</style><clipPath id="clippath"><polygon class="cls-1" points="0 143.6 1891.237 69.969 1837.965 387.311 52.983 399.955 0 143.6"/></clipPath></defs><g id="long_clr1"><polygon class="cls-3" points="1914.515 93.669 1597.164 53.54 1602.533 105.815 23.278 167.299 76.261 423.655 1861.244 411.01 1914.515 93.669"/><polygon class="cls-3" points="250.844 560 975.304 508.764 980.04 443.415 769.338 419.889 692.437 419.889 591.176 447.099 355.218 449.334 349.819 421.717 76.261 423.655 222.996 457.105 250.844 560"/><path class="cls-7" d="m567.898,423.399l69.544-27.21,106.305-1.128,213.015,24.654-388.864,3.683Zm-514.915-23.444l286.716,65.361-13.158-67.299-273.558,1.938ZM1891.237,69.969l-317.351-40.129,5.368,52.275,311.983-12.146Z"/><path class="cls-4" d="m703.982,257.765c0,142.36-115.405,257.765-257.765,257.765s-257.765-115.405-257.765-257.765S303.857,0,446.217,0s257.765,115.405,257.765,257.765ZM1115.153,4.322c-12.671,0-22.943,10.272-22.943,22.943s10.272,22.943,22.943,22.943,22.943-10.272,22.943-22.943-10.272-22.943-22.943-22.943Zm541.174,450.743c-10.816,0-19.583,8.768-19.583,19.583s8.768,19.583,19.583,19.583,19.583-8.768,19.583-19.583-8.768-19.583-19.583-19.583ZM665.868,7.821c-7.821,0-14.161,6.34-14.161,14.161s6.34,14.161,14.161,14.161,14.161-6.34,14.161-14.161-6.34-14.161-14.161-14.161Zm1164.487,452.667c-7.821,0-14.161,6.34-14.161,14.161s6.34,14.161,14.161,14.161,14.161-6.34,14.161-14.161-6.34-14.161-14.161-14.161Zm-522.322-42.013c-7.821,0-14.161,6.34-14.161,14.161s6.34,14.161,14.161,14.161,14.161-6.34,14.161-14.161-6.34-14.161-14.161-14.161Zm-1178.177,53.968c-7.821,0-14.161,6.34-14.161,14.161s6.34,14.161,14.161,14.161,14.161-6.34,14.161-14.161-6.34-14.161-14.161-14.161Z"/><path class="cls-8" d="m94.301,55.808c0,7.821-6.34,14.161-14.161,14.161s-14.161-6.34-14.161-14.161,6.34-14.161,14.161-14.161,14.161,6.34,14.161,14.161ZM1447.301,9.894c-6.676,0-12.087,5.412-12.087,12.087s5.412,12.087,12.087,12.087,12.087-5.412,12.087-12.087-5.412-12.087-12.087-12.087Zm-538.103,31.753c-7.821,0-14.161,6.34-14.161,14.161s6.34,14.161,14.161,14.161,14.161-6.34,14.161-14.161-6.34-14.161-14.161-14.161ZM52.983,432.635c-7.821,0-14.161,6.34-14.161,14.161s6.34,14.161,14.161,14.161,14.161-6.34,14.161-14.161-6.34-14.161-14.161-14.161Zm1417.378,53.968c-7.821,0-14.161,6.34-14.161,14.161s6.34,14.161,14.161,14.161,14.161-6.34,14.161-14.161-6.34-14.161-14.161-14.161Zm79.279-61.014c-5.856,0-10.603,4.747-10.603,10.603s4.747,10.603,10.603,10.603,10.603-4.747,10.603-10.603-4.747-10.603-10.603-10.603Zm-474.051,39.918c-11.651,0-21.096,9.445-21.096,21.096s9.445,21.096,21.096,21.096,21.096-9.445,21.096-21.096-9.445-21.096-21.096-21.096ZM52.983,399.955l1784.982-12.644,53.272-317.342L0,143.6l52.983,256.355Zm903.779,19.761l-758.804,7.187,29.608,109.397,724.46-51.236,4.736-65.349Z"/><g class="cls-2"><rect class="cls-6" x="654.445" y="-93.075" width="238.624" height="744.229" transform="translate(361.714 -432.848) rotate(40.107)"/><rect class="cls-6" x="1106.169" y="-200.537" width="107.903" height="744.229" transform="translate(383.341 -707.019) rotate(40.107)"/></g><path class="cls-5" d="m121.76,332.091l-.825-23.643c-.032-.905-.171-1.39-.417-1.451-.248-.059-.533.247-.858.92-.327.676-.587,1.226-.78,1.652-1.18,2.206-1.886,3.488-2.118,3.845-.233.358-.627.544-1.185.564-.559.019-1.124-.186-1.697-.621-.575-.433-1.167-.867-1.774-1.3-.609-.431-1.237-.915-1.884-1.453-.571-.33-1.088-.643-1.552-.941-.465-.298-.981-.576-1.548-.837-1.925-1.118-2.255-2.573-.991-4.364,3.008-3.876,6.485-10.246,10.435-19.114.254-.707.51-1.38.767-2.018.256-.637.544-1.415.862-2.335.317-.917.202-1.717-.346-2.397-.548-.677-1.449-.996-2.705-.952l-4.079.143c-1.046.036-1.894-.248-2.544-.855-.65-.605-.992-1.431-1.029-2.477l-.219-6.278c-.036-1.046.247-1.895.854-2.544.605-.649,1.432-.992,2.478-1.029l5.859-.205c1.951-.068,2.894-1.079,2.826-3.033l-.011-.313c-.027-.767-.274-1.353-.742-1.755-.468-.402-1.084-.521-1.845-.355l-2.496.506-2.5.401c-1.528.263-2.564-.398-3.106-1.986-.16-.552-.355-1.14-.585-1.762-.231-.618-.462-1.24-.693-1.86-.232-.621-.46-1.171-.687-1.653-.226-.48-.452-.96-.679-1.442-.975-1.921-.419-3.022,1.665-3.304,10.153-1.193,18.876-3.347,26.17-6.465,1.718-.758,3.162-.426,4.329,1l3.404,4.49c.871.948,1.83,1.403,2.876,1.365l16.002-.663c.976-.034,1.767-.376,2.373-1.025.606-.649.892-1.462.858-2.439l-.084-2.406c-.036-1.046.248-1.895.854-2.543.605-.65,1.432-.993,2.477-1.03l7.01-.246c1.046-.036,1.894.249,2.543.855.65.605.993,1.431,1.029,2.477l.08,2.302c.036,1.046.38,1.873,1.03,2.478.65.606,1.498.89,2.544.854l16.005-.558c1.046-.038,1.894.248,2.544.854.65.606.993,1.431,1.029,2.477l.559,16.007c.064,1.814-.795,2.751-2.573,2.812-1.778.063-2.637.967-2.576,2.71l.003.105c.064,1.814-.812,2.751-2.625,2.814l-12.554.439c-.907.032-1.662.373-2.269,1.022l-3.241,3.151c-1.015.945-1.19,1.928-.526,2.953,1.102,1.567,2.286,3.517,3.556,5.845.598,1.168,1.265,1.737,1.998,1.711.732-.025,1.437-.327,2.116-.912l2.639-2.396c3.18-2.903,5.745-5.401,7.698-7.497.813-.725,1.602-1.103,2.369-1.129.767-.027,1.511.26,2.23.864l3.879,3.111c1.732,1.616,1.824,3.254.276,4.915-2.969,2.967-6.151,5.837-9.544,8.607-.951.802-1.425,1.709-1.424,2.722-.001,1.012.501,1.886,1.505,2.617,3.871,2.87,8.264,5.718,13.182,8.547,1.922,1.051,2.11,2.44.565,4.17-.335.431-.704.864-1.107,1.297-.404.432-.773.9-1.104,1.399-.333.502-.682.984-1.049,1.451-.368.468-.836,1.078-1.402,1.829-.568.754-1.253,1.143-2.054,1.172-.802.028-1.525-.156-2.167-.552-3.715-2.386-7.838-5.487-12.37-9.309-.363-.338-.533-.26-.516.227l.03.838c.234,6.695-.502,11.641-2.205,14.844-2.291,4.408-6.4,6.717-12.327,6.924l-4.394.153c-1.326.047-2.117-.625-2.375-2.012-.082-.348-.147-.675-.192-.989-.047-.313-.111-.642-.192-.989l-1.109-4.778c-.241-.898-.44-1.59-.596-2.074-.158-.482-.484-.822-.979-1.013-.496-.192-1.293-.023-2.391.502-2.47,1.274-5.634,2.642-9.493,4.102-.825.378-1.593.406-2.301.08-.711-.322-1.216-.776-1.515-1.361-.301-.582-.579-1.079-.837-1.489-.26-.41-.501-.821-.725-1.232-.669-1.163-1.258-2.014-1.765-2.556-1.03-1.499-.718-2.559.937-3.175,6.29-1.825,13.373-4.972,21.248-9.436,2.261-1.265,4.344-2.56,6.253-3.884.48-.226.642-.615.484-1.168l-.26-1.458c-.156-.414-.438-.508-.848-.284-6.005,3.979-12.758,7.603-20.254,10.866-1.516.613-2.684.164-3.504-1.343-.153-.344-.338-.684-.559-1.028-.222-.341-.552-.82-.993-1.431-1.036-1.641-2.022-2.879-2.958-3.72-.938-.84-1.912-1.766-2.926-2.779l-1.526-1.728c-.436-.473-.792-.654-1.066-.539-.276.115-.401.522-.376,1.218l1.125,32.22c.037,1.047-.248,1.895-.854,2.544-.606.651-1.432.993-2.478,1.031l-6.904.241c-1.046.036-1.894-.248-2.544-.855-.65-.606-.993-1.431-1.03-2.478Zm22.161-31.254c9.428-3.959,16.528-7.594,21.301-10.904.411-.224.539-.542.386-.956l-.672-1.234c-.223-.41-.54-.505-.952-.28-2.933,1.987-6.292,3.816-10.073,5.483-.756.377-1.521.438-2.298.185-.778-.25-1.389-.772-1.835-1.558-.447-.788-.927-1.522-1.439-2.203-1.022-1.221-1.715-2.104-2.083-2.652-1.237-1.422-.961-2.513.829-3.276,3.371-1.441,6.904-3.277,10.597-5.501,1.367-.815,1.955-1.464,1.765-1.947-.192-.481-1.055-.697-2.588-.643l-5.022.175c-1.814.064-2.751-.809-2.815-2.623-.063-1.813-1.002-2.689-2.815-2.627-.837.03-1.526-.208-2.067-.712-.541-.506-.827-1.176-.856-2.013l-.486-13.915c-.027-.766-.255-1.299-.684-1.599-.43-.3-1.023-.296-1.781.01l-5.169,1.961c-1.517.542-2.247,1.649-2.188,3.322l.106,3.035c.036,1.046.38,1.873,1.029,2.478.65.606,1.498.891,2.543.854l1.36-.047c1.046-.038,1.894.248,2.544.852.65.606.993,1.433,1.029,2.479l.219,6.278c.036,1.046-.248,1.894-.854,2.542-.606.651-1.432.993-2.478,1.031l-3.87.135c-.628.022-.93.364-.907,1.025.023.664.251,1.197.684,1.599l4.237,4.358c1.881,1.889,3.726,3.71,5.533,5.463,1.005.801,1.869,1.541,2.592,2.214,1.368,1.208,1.409,2.395.124,3.557-.338.363-.639.702-.907,1.026-.269.323-.588.666-.959,1.029-.372.364-.725.741-1.06,1.137-.336.397-.739.865-1.208,1.404-.471.541-.614.93-.431,1.167.182.24.722.202,1.62-.109Zm14.847-36.76l27.095-.946c1.533-.053,2.274-.865,2.219-2.434-.055-1.57-.851-2.327-2.384-2.273l-27.095.946c-1.605.057-2.378.868-2.324,2.438.055,1.569.884,2.326,2.489,2.269Zm4.368,56.094l2.406-.084c1.812-.063,3.059-.35,3.74-.863.679-.511,1.074-1.225,1.183-2.136.287-1.755-.286-2.189-1.722-1.301-.688.303-1.612.825-2.774,1.563l-3.187,1.682c-1.37.817-1.251,1.196.354,1.139Zm105.866,5.206c-.544.439-1.285.674-2.227.707-.941.033-1.711-.464-2.305-1.49-5.776-9.434-14.139-19.931-25.085-31.49-2.173-2.228-4.158-4.078-5.955-5.552-2.087-1.742-3.164-3.609-3.233-5.596-.069-1.988.946-3.891,3.048-5.709,2.574-2.255,5.591-5.327,9.053-9.22,3.459-3.891,6.158-7.09,8.096-9.605,4.28-5.386,7.6-10.319,9.957-14.801.854-1.497,1.911-2.266,3.167-2.311,1.115-.039,2.031.175,2.746.638l7.816,4.859c1.284.793,1.951,1.888,2,3.281.029.838-.224,1.58-.76,2.227-.538.648-.972,1.186-1.306,1.617l-6.836,8.199c-1.075,1.226-2.15,2.451-3.223,3.674l-13.712,15.248c-.404.433-.598.877-.583,1.33.016.455.313.984.893,1.591.716.535,1.473,1.206,2.27,2.015,2.677,2.702,4.617,4.728,5.816,6.082,1.2,1.356,2.416,2.709,3.65,4.063,1.962,2.165,6.469,7.28,13.524,15.342,1.025,1.362,2.156,2.789,3.397,4.282.513.75.783,1.438.805,2.066.039,1.116-.595,1.978-1.9,2.579-4.386,2.389-7.424,4.379-9.114,5.974Zm9.17-67.355c.742-.723,1.533-1.101,2.37-1.13.837-.03,1.543.226,2.122.763.363.408.653.712.87.914.358.267.681.535.971.804l3.909,3.949c.36.336.651.642.87.912l.766.916c.511.682.784,1.439.813,2.276.03.838-.361,1.655-1.171,2.452l-1.626,1.417c-.949.872-1.944,1.324-2.99,1.362-1.046.036-2.115-.555-3.205-1.774l-.003-.105c-.878-1.155-1.842-2.221-2.888-3.198-1.047-.974-1.787-1.7-2.223-2.174-1.009-.871-1.532-1.885-1.573-3.035-.04-1.15.448-2.163,1.465-3.035l1.525-1.312Zm18.31,5.437c-.81.797-1.791,1.214-2.941,1.254-1.151.041-2.202-.551-3.152-1.775-1.605-1.969-3.343-3.722-5.212-5.265-1.011-.941-1.535-1.971-1.574-3.087-.039-1.114.483-2.146,1.568-3.091l1.521-1.416c.675-.651,1.396-.99,2.164-1.017.767-.026,1.474.228,2.122.763,1.005.804,1.688,1.374,2.05,1.709l3.909,3.949c.29.341.58.644.87.913l.766.915c.511.682.783,1.439.812,2.276.03.838-.361,1.655-1.171,2.452l-1.731,1.422Zm27.762,63.132c-1.326.047-2.394-.544-3.205-1.772-1.403-2.187-3.233-4.566-5.486-7.14-1.668-1.757-1.438-3.162.691-4.215,10.508-5.046,17.888-10.643,22.143-16.799,4.453-6.439,7.048-15.119,7.784-26.038.1-1.12-.175-2-.826-2.642-.65-.641-1.535-.942-2.65-.904l-23.12.808c-1.046.036-1.894-.249-2.544-.854-.649-.607-.993-1.432-1.029-2.478l-.281-8.056c-.036-1.046.248-1.895.854-2.543.606-.65,1.432-.993,2.478-1.03l23.852-.833c1.046-.036,1.872-.38,2.477-1.029.607-.65.891-1.497.854-2.544l-.398-11.404c-.036-1.045.248-1.894.854-2.543.606-.649,1.432-.993,2.478-1.03l9.624-.336c1.046-.036,1.894.249,2.544.855.649.606.992,1.432,1.029,2.477l.398,11.404c.036,1.047.38,1.872,1.029,2.478.65.606,1.498.89,2.544.854l30.966-1.081c1.046-.038,1.894.248,2.544.854.649.605.992,1.431,1.029,2.477,1.035,29.643.003,49.091-3.094,58.346-2.095,6.009-6.08,9.883-11.953,11.624-3.043.875-6.76,1.39-11.154,1.544l-4.603.161c-.837.028-1.545-.209-2.12-.713-.577-.505-.911-1.067-1.002-1.694-.246-1.04-.492-2.078-.737-3.117-.435-2.428-.828-4.195-1.18-5.3-.353-1.105-.589-1.865-.709-2.28-.118-.415-.255-.793-.406-1.139-.477-1.658.085-2.515,1.691-2.572l8.16-.284c3.416-.119,5.834-.901,7.25-2.348,1.275-1.441,2.064-3.877,2.363-7.31l.568-4.734c.88-6.733,1.154-14.947.815-24.642-.036-1.046-.38-1.873-1.029-2.478-.65-.606-1.498-.891-2.543-.854l-15.169.53c-2.024.07-3.138,1.157-3.342,3.26-.917,13.788-4.291,25.147-10.122,34.078-5.834,8.934-14.788,16.473-26.862,22.62-.482.226-.967.348-1.454.365Zm108.462-82.448l2.933.002,2.93-.102c3.068-.107,6.344-.256,9.83-.448,1.042-.177,1.654-.617,1.839-1.322.494-1.832.805-3.434.932-4.799.126-1.365.422-2.405.886-3.12.731-1.074,1.758-1.632,3.084-1.679.139-.005,3.073.033,8.802.11.976-.034,1.718.239,2.228.814.508.576.775,1.213.8,1.91.019.559-.052,1.486-.217,2.782-.164,1.299-.311,2.124-.438,2.478-.053.491-.026.769.082.834.107.067.247.097.422.09.173-.006.296-.01.366-.013,6.608-.717,11.575-1.487,14.898-2.302.417-.083.798-.131,1.147-.143.837-.03,1.612.189,2.328.65.93.668,1.49,1.695,1.679,3.084.36,4.319.542,6.513.544,6.581.032.907-.186,1.719-.648,2.432-.601.789-1.771,1.318-3.506,1.588-3.534.751-7.667,1.386-12.397,1.899l-8.658,1.037c-.766.097-1.343.534-1.735,1.316l-2.454,4.694c.069-.003.381-.048.938-.136.555-.088,1.286-.15,2.193-.182,7.951-.277,13.222,2.717,15.816,8.978.459,1.173,1.176,1.74,2.154,1.706.278-.009.781-.132,1.506-.366.725-.235,1.673-.547,2.848-.939,1.172-.389,2.382-.746,3.628-1.068l7.675-2.153c.483-.157.987-.244,1.51-.263.523-.018,1.033.105,1.532.366.925.526,1.547,1.307,1.862,2.343l2.214,6.417c.226.482.351,1.034.372,1.663.022.627-.167,1.228-.565,1.8-.592,1.067-1.549,1.695-2.867,1.881-6.459.995-12.659,2.468-18.595,4.419-.416.085-.758.325-1.022.717-.266.393-.39.834-.373,1.322l.23,6.59c.041,1.188-.308,2.177-1.048,2.97-.742.795-1.704,1.212-2.889,1.253l-7.532.264c-1.187.041-2.176-.308-2.97-1.048-.795-.741-1.212-1.703-1.253-2.89l-.014-.417c-.017-.488-.081-.817-.192-.989-.111-.17-.27-.252-.48-.246-.559.019-1.192.356-1.902,1.009-.71.652-1.306,1.129-1.783,1.424-1.147,1.156-1.706,2.155-1.676,2.99.051,1.466.991,2.411,2.822,2.835,2.041.489,4.789.671,8.241.55,3.452-.12,6.083-.265,7.893-.433,1.809-.168,3.686-.424,5.629-.772,3.958-.627,7.457-1.378,10.5-2.253.275-.078.554-.124.833-.134.766-.026,1.37.232,1.808.775.292.408.451.927.473,1.555.007.209-.019.49-.076.84-.057.352-.073.912-.046,1.678.003.07-.073,1.923-.224,5.559l.073,2.093.003.105c-.074,1.888-.94,3.07-2.599,3.547l-.105.003c-6.236,1.405-12.876,2.23-19.919,2.477-12.833.448-21.818-1.892-26.954-7.02-2.316-2.291-3.532-5.149-3.651-8.567-.119-3.416.53-6.301,1.95-8.655,1.419-2.355,3.177-4.475,5.277-6.365,3.115-2.761,7.592-5.537,13.43-8.325-.044-1.255-.48-2.215-1.305-2.887-.827-.668-2.256-1.073-4.285-1.212-.421-.055-.84-.075-1.259-.06-1.534.053-3.059.421-4.57,1.101-1.854.902-3.96,2.584-6.319,5.04.003.07-2.931,3.035-8.802,8.895-.676.652-1.45.993-2.321,1.024-.873.03-1.67-.291-2.39-.964l-5.739-5.351c-.938-.874-1.425-1.836-1.462-2.881-.046-1.325.576-2.463,1.871-3.418,4.897-3.732,9.902-9.353,15.017-16.864.453-.992.692-1.63.718-1.911.025-.278-.034-.452-.175-.517-.297-.477-.899-.701-1.804-.671-.07.003-.854.049-2.352.135-1.5.089-2.876.152-4.131.197-1.255.043-2.261-.269-3.018-.943-.757-.669-1.154-1.564-1.193-2.68-.375-4.736-.563-7.137-.566-7.207-.041-1.186.292-2.158.999-2.915.706-.758,1.617-1.156,2.734-1.195Zm174.312,6.143c1.121-.039,2.087.322,2.9,1.079.812.756,1.24,1.771,1.284,3.04l.285,8.183c.047,1.345-.328,2.406-1.123,3.181-.797.776-1.792,1.186-2.987,1.226l-5.945.095-9.867.232c-.523.018-.984.241-1.38.666-.397.426-.622.976-.672,1.65-.302,10.635-2.714,19.774-7.235,27.412-4.162,7.253-10.966,13.775-20.415,19.566-.589.317-1.424.498-2.506.536-1.084.038-2.053-.416-2.909-1.358-.627-.799-1.157-1.491-1.588-2.077-.432-.582-.957-1.162-1.575-1.741-.781-.943-1.675-1.885-2.68-2.822-1.081-.934-1.636-1.852-1.667-2.748-.042-1.193.709-2.194,2.253-2.996,6.903-3.68,12.074-8.221,15.516-13.616,3.439-5.396,5.398-11.954,5.877-19.677-.007-.224-.013-.373-.015-.447-.018-.523-.221-.965-.607-1.328-.388-.359-.955-.526-1.7-.5l-8.744.306c-.747.026-1.32.252-1.715.676-.397.426-.583,1.013-.556,1.758l.442,12.665c.045,1.273-.33,2.332-1.124,3.183-.794.851-1.825,1.298-3.095,1.342l-8.295.29c-1.271.044-2.312-.33-3.125-1.125-.813-.795-1.242-1.825-1.286-3.098l-.439-12.553c-.023-.672-.23-1.207-.617-1.606-.389-.397-.882-.587-1.479-.566-.075.002-.149.044-.22.12l-9.527.333-5.712.311c-1.197.042-2.219-.297-3.066-1.015-.849-.717-1.296-1.75-1.343-3.095l-.281-8.07c-.047-1.345.346-2.426,1.178-3.239.831-.815,1.882-1.246,3.154-1.29l4.823-.056c1.572.02,3.199.001,4.88-.057,1.681-.059,2.896-.082,3.645-.072.747.013,1.197.014,1.347.008.896-.031,1.524-.239,1.886-.626.359-.385.529-.915.505-1.588l-.004-.113-.464-10.084c-.052-1.495-.13-2.595-.227-3.304-.101-.705-.152-1.133-.157-1.283-.044-1.27.292-2.33,1.012-3.178.717-.847,1.824-1.298,3.32-1.35l8.855-.309c1.419-.05,2.516.305,3.292,1.063.773.758,1.181,1.699,1.22,2.82l.065,5.048c-.044,3.07.015,6.883.174,11.44.016.448.099.709.252.776.151.072.377.1.676.09l1.91.045,7.51-.263,2.126-.186c.449-.016.743-.119.887-.313.143-.19.211-.4.203-.624-.007-.224-.074-1.569-.197-4.033-.124-2.464-.25-4.442-.376-5.934-.126-1.49-.231-2.892-.314-4.199-.084-1.304-.155-2.274-.214-2.909-.061-.633-.091-.988-.093-1.063-.044-1.27.292-2.312,1.013-3.122.719-.812,1.789-1.24,3.209-1.29l8.855-.309c1.27-.044,2.329.31,3.179,1.067.848.756,1.297,1.77,1.341,3.039l.583,16.701c.026.748.231,1.303.619,1.662.386.361,1.029.525,1.925.493.073-.002,1.232-.06,3.472-.177,2.24-.114,4.105-.236,5.599-.364l6.273-.332Zm37.442,47.062c-.732.474-1.545.727-2.442.759-.896.031-1.618-.242-2.161-.824-.081-.145-.198-.29-.352-.435-.153-.068-.307-.214-.464-.433l-.7-.762c-.773-.719-1.547-1.422-2.318-2.106-.772-.683-1.446-1.258-2.024-1.727-.577-.465-1.002-.806-1.27-1.021-.271-.215-.56-.466-.868-.756-.844-.568-1.297-1.246-1.362-2.028-.065-.784.377-1.529,1.325-2.235,2.985-2.349,5.664-4.913,8.037-7.688,2.809-3.089,4.986-6.083,6.532-8.982.918-1.528,1.976-2.313,3.172-2.355,1.046-.036,1.987.157,2.826.574l6.862,3.69c1.066.563,1.803,1.322,2.211,2.279.162.371.251.739.264,1.113.026.748-.213,1.467-.71,2.157-3.788,7.241-9.308,14.167-16.558,20.779Zm11.692-2.653c-.047-1.346.86-2.123,2.723-2.339,3.736-.131,6.066-.885,6.991-2.264.428-.614.624-1.405.59-2.377l-.806-23.091c-.026-.746-.253-1.318-.677-1.716-.426-.394-1.125-.577-2.095-.543l-4.483.157-15.456.876-3.92.248c-1.121.039-2.107-.318-2.955-1.075-.85-.755-1.296-1.767-1.341-3.038l-.255-7.286c-.049-1.42.305-2.517,1.063-3.293.759-.772,1.698-1.18,2.819-1.22.224-.008.485-.017.784-.027,2.698.13,6.513.109,11.445-.063l12.106-.423c.746-.026,1.318-.252,1.716-.679.396-.424.581-1.009.555-1.758l-.387-11.096c-.044-1.27.312-2.313,1.069-3.125.758-.812,1.809-1.241,3.154-1.289l8.854-.309c1.27-.044,2.33.313,3.18,1.068.848.756,1.297,1.77,1.341,3.039l.387,11.096c.026.749.232,1.321.621,1.719.388.398.955.584,1.703.558,6.65-.232,12.175-.538,16.577-.916l8.175-.51c1.194-.042,2.199.317,3.011,1.074.812.757,1.242,1.808,1.288,3.154l.259,7.397c.047,1.345-.327,2.423-1.122,3.236-.796.815-1.791,1.241-2.985,1.282-.151.006-.263.009-.336.013-5.39-.109-13.504.024-24.338.402-.748.026-1.301.252-1.66.674-.36.425-.525,1.012-.499,1.757l.92,26.34c.232,6.653-1.696,11.432-5.784,14.343-2.992,2.199-7.839,3.678-14.546,4.436-.3.01-.486.017-.56.019-.748.026-1.429-.175-2.041-.604-.931-.938-1.546-2.488-1.846-4.648-.331-.887-.587-1.777-.767-2.668-.754-2.291-1.45-4.026-2.09-5.201-.239-.44-.367-.885-.382-1.333Zm34.163-17.914c-1.235-1.08-1.872-2.196-1.913-3.356-.04-1.157.554-2.319,1.786-3.485l5.015-4.215c.873-.705,1.758-1.072,2.655-1.104.97-.034,1.878.235,2.722.804,6.222,4.648,12.223,10.498,18.007,17.552.543.58.828,1.205.851,1.878.008.224-.022.449-.088.675-.268.908-.77,1.562-1.503,1.961-.954.558-2.083,1.384-3.392,2.476-1.309,1.093-2.235,1.874-2.78,2.343-.544.467-.945.817-1.198,1.051-.254.233-.562.507-.925.817-.578.619-1.258.942-2.042.97s-1.569-.431-2.349-1.378c-3.878-6.073-8.827-11.735-14.846-16.988Zm25.374-38.256c-2.09,2.316-4.702,3.53-7.841,3.641-3.138.109-5.829-.881-8.071-2.975-2.244-2.089-3.419-4.706-3.529-7.844-.112-3.212.877-5.903,2.973-8.071,2.168-2.17,4.784-3.309,7.848-3.416,3.063-.108,5.699.885,7.904,2.977,2.205,2.095,3.362,4.672,3.468,7.735.107,3.064-.81,5.715-2.752,7.953Zm-11.265-4.433c.85.795,1.892,1.167,3.125,1.124s2.228-.469,2.985-1.282c.757-.812,1.114-1.852,1.07-3.123-.044-1.27-.472-2.264-1.283-2.986-.81-.718-1.833-1.058-3.065-1.015s-2.247.473-3.041,1.286c-.796.813-1.171,1.819-1.129,3.013.041,1.196.486,2.19,1.339,2.984Zm121.858,34.91c.032.897-.131,1.614-.486,2.148-.498.767-1.306,1.168-2.426,1.207l-5.164-.044c-6.436.002-14.92.185-25.456.554l-15.019.525c-16.589.579-27.492,1.184-32.706,1.814-.151.006-.263.009-.336.013-1.047.036-1.845-.309-2.393-1.039-.393-.509-.602-1.174-.631-1.998l-.086-2.466-.316-5.824-.082-2.353c-.005-.149-.009-.261-.012-.336-.031-.897.205-1.636.709-2.214.503-.579,1.204-.882,2.1-.914l4.152-.034c3.144.041,7.031-.02,11.665-.183l14.912-.408,4.035-.141,7.962-.166,4.035-.141c11.358-.397,20.433-.825,27.226-1.288l4.927-.284c.822-.03,1.523.21,2.101.713.58.505.884,1.204.915,2.1.003.075.007.188.012.336l.364,10.424Zm40.17,31.928l-2.659-76.108c-.044-1.268.313-2.329,1.067-3.179.757-.85,1.806-1.298,3.152-1.346l8.519-.297c1.27-.044,2.329.331,3.181,1.123.85.795,1.298,1.827,1.342,3.095l.81,23.203c.01.298.019.559.027.784.07-.076.429-.575,1.07-1.496.852-1.301,1.839-1.973,2.96-2.012,1.121-.04,2.025.155,2.714.579.688.425,1.356.833,2.006,1.221.649.39,1.586.973,2.81,1.754,3.361,1.979,6.835,3.988,10.424,6.033,3.813,2.11,7.694,3.958,11.64,5.54,1.215.558,1.842,1.359,1.88,2.404.023.673-.216,1.354-.714,2.045-.357.536-1.016,1.458-1.98,2.763-.965,1.307-2.326,3.599-4.081,6.875-.704,1.297-1.615,1.964-2.736,2.003-.897.032-1.614-.128-2.149-.485-.536-.355-1.09-.672-1.661-.951-.571-.278-1.278-.667-2.116-1.163-5.192-2.959-11.191-6.603-18.001-10.929-.461-.357-.805-.533-1.029-.525s-.372.108-.439.296c-.068.19-.092.546-.074,1.068l1.296,37.101c.044,1.272-.332,2.332-1.124,3.183-.795.849-1.825,1.298-3.095,1.342l-8.519.297c-1.346.048-2.424-.327-3.238-1.12-.813-.795-1.241-1.827-1.286-3.098Zm211.177-1.727l-3.044-87.183c-.048-1.374.325-2.49,1.122-3.343.797-.856,1.881-1.307,3.256-1.355l8.801-.307c1.375-.048,2.49.326,3.344,1.123.854.796,1.305,1.882,1.353,3.256l3.045,87.183c.048,1.375-.326,2.49-1.123,3.343-.796.856-1.881,1.307-3.256,1.355l-8.801.307c-1.375.048-2.489-.326-3.344-1.123-.854-.796-1.304-1.881-1.353-3.256Zm79.481-2.776l-2.469-70.681c-.048-1.375-.498-2.462-1.353-3.256-.852-.798-1.968-1.171-3.344-1.123l-19.251.673c-1.375.048-2.489-.326-3.343-1.123-.855-.797-1.305-1.882-1.354-3.258l-.259-7.426c-.048-1.374.326-2.49,1.123-3.343.797-.855,1.881-1.306,3.256-1.354l65.456-2.287c1.375-.048,2.49.326,3.343,1.124.855.796,1.306,1.882,1.354,3.256l.259,7.426c.048,1.375-.326,2.49-1.123,3.344-.796.854-1.881,1.305-3.256,1.354l-19.115.667c-1.374.048-2.46.498-3.256,1.353-.797.854-1.171,1.968-1.123,3.343l2.469,70.681c.048,1.375-.326,2.49-1.123,3.343-.796.856-1.882,1.306-3.256,1.355l-8.938.311c-1.375.048-2.489-.326-3.344-1.123-.854-.796-1.305-1.881-1.353-3.256Zm100.245-8.644c-2.162.908-4.24,1.453-6.236,1.634-1.998.184-3.92.308-5.77.373-1.852.065-4.109-.216-6.775-.84-2.67-.625-5.086-1.655-7.252-3.093-4.797-3.158-7.296-7.625-7.497-13.4-.202-5.776,1.91-11.273,6.341-16.493,3.192-3.815,7.751-7.452,13.678-10.909.887-.559,1.316-1.293,1.284-2.199l-.257-7.361c-.027-.754-.238-1.313-.626-1.679-.392-.365-1.079-.53-2.06-.496-.225.008-.491.017-.793.028-2.559.316-6.857.58-12.896.79-1.208.042-2.223-.319-3.043-1.083-.821-.766-1.25-1.752-1.292-2.96-.33-5.052-.493-7.617-.497-7.693-.048-1.359.327-2.449,1.132-3.271.802-.822,2.223-1.268,4.262-1.339,3.474-.045,7.848-.313,13.126-.799.829-.03,1.37-.255,1.619-.681.249-.423.364-.976.34-1.656l-.296-8.493c-.045-1.282.331-2.353,1.133-3.214.8-.858,1.842-1.312,3.128-1.356l7.133-.25c1.284-.044,2.355.335,3.216,1.135.858.804,1.311,1.846,1.356,3.128l.217,6.229c.028.831.277,1.426.743,1.788.234.219.579.318,1.031.303.377-.014.754-.063,1.128-.151,3.675-.81,6-1.363,6.973-1.663.97-.298,1.758-.457,2.364-.479,1.282-.044,2.281.373,2.993,1.256.549.66.92,1.555,1.112,2.681.616,4.591.925,6.998.933,7.224.026.756-.172,1.557-.597,2.402-.5.851-1.496,1.526-2.99,2.032-3.137,1.018-6.81,1.978-11.011,2.879-.827.182-1.363.465-1.613.85-.252.389-.367.883-.347,1.487l.155,4.416c.024.681.191,1.167.506,1.456.31.293.845.424,1.599.398.227-.008.454-.053.676-.138,4.063-.518,7.414-.824,10.059-.916,5.812-.203,11.128.443,15.941,1.936,5.814,1.991,10.151,4.975,13.011,8.958,2.862,3.982,4.373,8.276,4.534,12.881.258,7.399-1.714,13.211-5.912,17.44-4.201,4.228-9.924,6.47-17.171,6.723-10.191.356-17.478-3.812-21.865-12.504-.08-.147-.125-.335-.133-.561l.198,5.663c.168,4.832-1.496,8.027-4.994,9.584Zm-11.487-23.75c-.031-.906-.16-1.354-.388-1.346-.225.008-.598.23-1.11.662-.514.434-1.168,1.196-1.961,2.279-1.365,2.089-2.027,3.7-1.987,4.833.04,1.132.257,1.994.658,2.585.398.591,1.051.909,1.96.952.38.063.834.083,1.363.065,1.207-.042,1.797-.554,1.762-1.537l-.297-8.493Zm28.544-.768c1.134-.04,2.255.714,3.368,2.263,1.508,2.064,3.338,3.058,5.492,2.983,2.151-.075,3.695-.752,4.633-2.032.937-1.281,1.367-3.034,1.289-5.26-.077-2.227-1.224-4.284-3.445-6.173-2.222-1.888-6.125-2.734-11.712-2.538-3.549.124-7.161.589-10.836,1.398-.526.094-.933.356-1.218.78-.29.425-.424.904-.406,1.431l.491,14.042c-.008-.226.06-.416.207-.573.493-.999,1.225-1.705,2.195-2.119,2.011-.824,3.333-1.401,3.962-1.724.631-.324,1.208-.61,1.729-.855.519-.246,1.115-.567,1.782-.971.665-.399,1.488-.617,2.469-.651Zm34.584-38.965c.857.802,1.303,1.616,1.331,2.447.032.906-.28,1.75-.932,2.527-1.822,1.954-3.62,4.589-5.393,7.898-.642,1.082-1.416,1.637-2.323,1.669-.605.02-1.217-.221-1.838-.73-.857-.724-2.177-1.662-3.954-2.81-4.414-3.02-9.006-5.693-13.774-8.022-.691-.353-1.231-.638-1.616-.851-.922-.421-1.55-1.079-1.882-1.974-.088-.299-.135-.599-.145-.901-.026-.755.213-1.482.718-2.18l4.3-6.727c.782-1.389,1.854-2.105,3.213-2.153.604-.02,1.325.143,2.17.49.846.35,2.803,1.226,5.876,2.631,6.621,3.472,11.371,6.367,14.25,8.686Zm31.771,65.672l-2.032-58.208c-.045-1.283-.124-1.94-.239-1.975-.115-.033-.198.33-.246,1.085-.05.758-.142,1.366-.275,1.823l-.269,2.052c-.07.155-.102.325-.095.513.007.19-.026.36-.095.514l-1.231,6.96c-.14.384-.221.744-.246,1.087-.027.341-.107.76-.24,1.254-.135.498-.443.867-.926,1.11-.483.244-1.03.246-1.644,0-.614-.242-1.282-.465-2.007-.667-.725-.201-1.47-.401-2.231-.601-.993-.267-2.06-.532-3.203-.795-2.361-.524-3.313-1.774-2.852-3.757,1.362-6.471,2.305-14.026,2.836-22.662.077-2.119,1.139-3.102,3.185-2.945l5.116.386c1.289.108,2.279-.192,2.973-.897.693-.705,1.02-1.659.976-2.869l-.608-17.439c-.04-1.133.269-2.049.925-2.754.655-.702,1.549-1.074,2.681-1.114l8.042-.281c1.132-.04,2.049.268,2.752.924.704.657,1.076,1.549,1.116,2.682l.514,14.722c.072,2.039.898,3.03,2.484,2.975.604-.02,1.166-.155,1.687-.399l1.903-.746c1.412-.654,2.519-.352,3.319.904.165.373.346.707.546,1.001.198.298.418.629.658.998l5.6,11.029.86,1.898c.573,1.266.227,2.185-1.037,2.759l-7.582,3.664c-.818.409-1.571.473-2.262.193-.69-.277-1.2-.826-1.531-1.647l-2.599-6.259c-.49-1.04-.866-1.519-1.128-1.434-.261.085-.372.692-.332,1.825l2.254,64.549c.04,1.133-.269,2.052-.925,2.755-.656.701-1.549,1.073-2.681,1.113l-8.042.281c-1.132.04-2.049-.268-2.752-.923-.704-.656-1.076-1.55-1.116-2.684Zm31.071-68.094c-2.761-7.614-5.584-13.825-8.475-18.638-.643-1.112-.831-2.163-.564-3.155.266-.991.996-1.773,2.186-2.345l6.923-3.076c.596-.248,1.12-.38,1.573-.394,1.282-.045,2.207.415,2.77,1.376.561.964,1.085,1.853,1.567,2.667.482.816,1.128,2.002,1.938,3.561,3.003,5.943,4.823,9.866,5.457,11.77.634,1.906.79,3.168.472,3.783-.318.617-.854,1.05-1.598,1.304l-2.351.875c-.97.414-1.9.787-2.796,1.118-1.94.748-3.464,1.464-4.574,2.144-1.11.682-1.954.351-2.529-.989Zm-7.215,66.129l-1.807-51.754c-.04-1.133.269-2.05.925-2.753.655-.704,1.549-1.074,2.681-1.114l8.154-.284c.98-.035,1.785.239,2.41.821.624.585.957,1.424.996,2.518.038,1.095.321,1.633.85,1.614.526-.018,1.047-.3,1.557-.848l1.968-2.111c.726-.779,1.546-1.188,2.451-1.22.907-.031,1.612.172,2.119.608.507.434.956.835,1.347,1.199,1.317.938,2.249,1.662,2.797,2.17,1.561,1.458,2.835,2.17,3.817,2.136.98-.034,1.755-.552,2.326-1.556.854-1.541,1.629-3.119,2.329-4.73,1.181-2.989,2.958-4.073,5.331-3.248l7.236,2.696c.612.205.906-.032.882-.712-.024-.679.305-1.031.984-1.055l10.305-.36c1.133-.04,2.05.269,2.754.925.702.656,1.074,1.548,1.114,2.681l1.819,52.094c.04,1.131-.268,2.05-.923,2.753-.656.702-1.55,1.074-2.684,1.114l-57.868,2.021c-1.132.04-2.05-.268-2.753-.924-.704-.656-1.075-1.55-1.115-2.681Zm14.06-32.466c.082,2.341.689,3.489,1.821,3.45,1.133-.039,2.385-.989,3.757-2.851.288-.388.688-.856,1.197-1.404.51-.544.751-1.234.722-2.066-.12-1.279-1.307-2.787-3.56-4.524l-1.055-.984c-.311-.29-.722-.654-1.229-1.09-.508-.436-.963-.533-1.37-.293-.408.242-.597.779-.567,1.608l.284,8.154Zm4.504,21.838l27.632-.965c1.133-.04,2.028-.411,2.684-1.114.655-.704.963-1.621.923-2.753l-.161-4.643c-.042-1.207-.442-1.798-1.196-1.772-.454.016-.9.222-1.339.613l-2.307,2.122c-.365.391-.712.743-1.041,1.057-.327.315-.712.704-1.149,1.173s-.976.715-1.617.738c-.643.022-1.279-.332-1.908-1.068l-1.786-2.431c-.392-.364-.747-.768-1.064-1.211-1.192-1.697-2.241-2.528-3.148-2.496-.905.031-1.757.552-2.553,1.563-1.232,1.555-3.346,3.744-6.347,6.57-.587.55-1.33.84-2.237.872-.905.032-1.789-.352-2.647-1.154l-1.29-1.204c-.78-.652-1.433-.97-1.961-.951-.982.035-1.441.922-1.381,2.657l.027.792c.04,1.132.411,2.025,1.115,2.681.702.655,1.621.964,2.753.924Zm19.343-66.212c.359,1.652-.472,2.702-2.497,3.15l-1.347.388c-.226.008-.414.053-.563.132l-5.501,1.554c-.374.166-.747.292-1.12.38-.377.088-.75.215-1.121.377-1.345.501-2.155.04-2.431-1.388-1.35-6.225-3.223-12.207-5.614-17.945-.572-1.188-.647-2.245-.225-3.167.422-.923,1.266-1.592,2.538-2.016l7.176-2.291c.899-.258,1.75-.211,2.555.138.807.35,1.413.934,1.821,1.75,2.868,6.402,4.978,12.715,6.329,18.94Zm12.988,14.74c-.426.773-1,1.17-1.716,1.195-.718.026-1.422-.138-2.114-.492-.693-.353-1.231-.599-1.614-.738l-5.058-1.978c-.383-.138-.727-.238-1.031-.303-2.282-.448-3.036-1.406-2.255-2.87.351-.767.721-1.556,1.108-2.363.388-.807,1.034-2.321,1.939-4.547,3.063-7.514,5.291-14.092,6.681-19.735.336-1.146.913-1.96,1.729-2.441.814-.482,1.755-.551,2.828-.213l9.045,2.519c1.07.342,1.827.92,2.271,1.736.443.817.496,1.758.156,2.829-3.919,11.174-7.909,20.307-11.969,27.402Zm-1.642,30.899l-.55-15.741c-.082-2.34-.614-2.435-1.597-.284-.284.539-.549,1.079-.795,1.614-.246.539-.547,1.117-.902,1.733l-2.346,4.276c-.501.775-.7,1.595-.593,2.46.105.866.411,1.555.921,2.065.51.513.942.97,1.297,1.371.353.405.725.789,1.116,1.151l1.771,1.98c.551.662.978.93,1.275.806.297-.123.432-.6.404-1.431Zm71.471-44.335c-.03-.829-.535-1.229-1.515-1.193-.378.013-.83.105-1.35.274-3.746,1.037-7.49,2.002-11.239,2.886-.302.011-.606.022-.906.032-2.115.074-3.51-.934-4.187-3.028l-2.437-8.079c-.169-.521-.264-1.067-.283-1.634-.02-.565.148-1.118.508-1.661.648-.93,1.534-1.489,2.663-1.68,4.437-.609,9.227-1.437,14.369-2.487,5.14-1.047,9.054-2.111,11.737-3.187.449-.167.972-.261,1.578-.282.68-.024,1.364.105,2.054.381l7.044,3.61c.918.347,1.581.965,1.991,1.858.319.517.49,1.023.507,1.513.017.491-.044.927-.181,1.311-1.949,9.137-4.724,18.458-8.321,27.955-.14.385-.202.707-.193.971.009.265.053.471.134.618.243.446.667.715,1.276.807.607.092,1.214.166,1.821.219.531.057,2.319.373,5.364.947.227.068.493.095.796.085.3-.011.656-.174,1.062-.491.401-.315.665-.891.788-1.729.12-.91.271-3.069.455-6.478.103-1.365.557-2.401,1.365-3.11.51-.546,1.18-.834,2.012-.863.377-.014.795.047,1.254.182l9.134,1.836c.915.194,1.683.641,2.314,1.337.629.697.963,1.537.997,2.517.002.076.006.19.011.34-.127,2.878-.318,5.039-.568,6.482-.253,1.446-.368,2.451-.348,3.018.019.566.069.923.151,1.071.318.518.978.949,1.971,1.292,3.592,1.084,6.577,2.151,8.957,3.202,1.305.56,1.974,1.369,2.012,2.424.02.605-.221,1.255-.725,1.952-.568,1.081-1.103,2.043-1.599,2.892-.857,1.466-1.874,3.733-3.052,6.796-.557,1.38-1.363,2.088-2.419,2.126-.907.032-1.785-.202-2.634-.701-1.78-1.147-3.701-2.062-5.765-2.747-.386-.214-.88-.31-1.483-.289-.454.016-.927.525-1.421,1.523-4.317,10.659-10.499,19.719-18.553,27.181-.589.473-1.336.726-2.24.758-.907.032-1.708-.168-2.403-.597-1.096-1.021-2.565-2.028-4.414-3.021-1.849-.992-2.946-1.578-3.293-1.755-.348-.176-.714-.373-1.099-.585-1.149-.488-1.74-1.147-1.77-1.98-.026-.752.365-1.447,1.176-2.081,6.968-6.063,12.444-13.775,16.424-23.136.211-.461.313-.806.305-1.032-.032-.906-.618-1.526-1.765-1.865l-3.995-.768c-2.738-.508-4.675-.743-5.808-.704-.301.01-.527.057-.674.136-.519.322-.924.676-1.212,1.064-3.61,7.004-6.724,11.951-9.345,14.84-2.621,2.887-5.304,5.099-8.046,6.629-3.038,1.77-6.442,2.72-10.217,2.852-2.945.103-5.606-.333-7.983-1.308-2.687-1.114-4.769-2.877-6.251-5.281-1.483-2.404-2.272-5.003-2.369-7.798-.183-5.209,1.206-9.753,4.171-13.638,5.565-7.298,14.942-11.52,28.13-12.66,1.051-.188,1.75-.742,2.096-1.662,1.316-3.447,2.386-6.392,3.206-8.842l1.943-6.078c.208-.534.305-1.031.289-1.484Zm-24.036,42.225c.464.288.901.423,1.317.408.415-.015.773-.065,1.072-.151.97-.334,1.805-.78,2.504-1.334.699-.551,1.376-1.182,2.032-1.886.938-1.241,1.694-2.344,2.265-3.311.571-.963.924-1.637,1.063-2.02-.076.002-.152.005-.226.008-3.752.812-6.581,2.006-8.492,3.584-1.615,1.343-2.409,2.465-2.377,3.372.002.076.045.223.13.448.01.302.248.598.712.882Zm111.272,27.181l-.914-26.16c-.047-1.358-.28-2.031-.693-2.016-.416.015-.946.563-1.588,1.642-.642,1.082-1.251,2.028-1.828,2.843-.577.814-1.008,1.49-1.289,2.029-.998,1.774-2.004,2.678-3.025,2.713-1.018.035-2.035-.343-3.044-1.141-2.336-1.96-4.645-3.636-6.922-5.031-2.279-1.394-2.621-3.063-1.025-5.009,4.793-5.61,9.616-13.638,14.466-24.09.349-.842.696-1.649,1.049-2.416.351-.768.734-1.707,1.148-2.819.415-1.108.284-2.107-.386-2.992-.674-.883-1.765-1.298-3.276-1.246l-8.384.18c-1.059.036-1.937-.273-2.64-.929-.704-.656-1.074-1.511-1.11-2.569l-.246-7.022c-.04-1.132.269-2.049.925-2.752.656-.705,1.548-1.076,2.681-1.116l9.626-.335c1.132-.04,2.028-.411,2.682-1.114.656-.704.964-1.621.925-2.754l-.463-13.25c-.04-1.132.267-2.049.923-2.752.656-.705,1.55-1.076,2.684-1.116l8.493-.297c1.132-.04,2.049.268,2.754.926.702.656,1.074,1.548,1.114,2.68l.463,13.25c.039,1.133.41,2.028,1.113,2.684.704.655,1.622.963,2.754.923l5.322-.185c1.133-.04,2.052.268,2.755.925.702.656,1.073,1.549,1.113,2.681l.242,6.91c.039,1.131-.269,2.049-.924,2.752-.656.704-1.55,1.075-2.684,1.115l-5.549.193c-2.34.082-3.469,1.295-3.387,3.634l.075,2.152c.034.982.364,1.785.991,2.403.626.622,1.273,1.28,1.94,1.973.665.696,1.429,1.444,2.288,2.245,2.349,2.339,3.992,3.886,4.926,4.647.932.762,1.849,1.562,2.746,2.398.899.84,1.67,1.245,2.311,1.223.641-.023.942-.673.897-1.958l-1.629-46.658c-.04-1.132.267-2.05.923-2.753.656-.704,1.55-1.075,2.684-1.115l42.239-1.474c1.132-.04,2.05.268,2.753.924.704.655,1.075,1.55,1.115,2.682l3.077,88.106c.04,1.132-.269,2.049-.925,2.753-.655.702-1.549,1.075-2.681,1.114l-42.239,1.475c-1.133.04-2.052-.269-2.755-.924-.704-.656-1.073-1.55-1.113-2.682l-1.112-31.822c-.044-1.283-.407-1.914-1.088-1.89-.905.032-2.111,1.247-3.613,3.641-.509.624-.942,1.187-1.303,1.69-.361.506-.741,1.009-1.138,1.515-.398.505-.863.766-1.39.784-.529.018-1.026-.191-1.496-.627l-3.641-3.614c-1.329-1.238-1.961-.952-1.897.859l1.166,33.407c.04,1.133-.268,2.052-.923,2.755-.657.701-1.552,1.073-2.684,1.113l-8.493.297c-1.133.04-2.052-.268-2.754-.924-.704-.656-1.074-1.549-1.114-2.682Zm48.907-70.304l10.307-.36c1.131-.04,2.025-.411,2.681-1.114.656-.704.964-1.622.924-2.754l-.169-4.869c-.04-1.133-.411-2.027-1.115-2.682-.704-.657-1.621-.964-2.752-.924l-10.307.36c-1.132.039-2.027.409-2.681,1.113-.656.704-.965,1.621-.925,2.755l.169,4.869c.04,1.132.413,2.025,1.116,2.681.702.656,1.62.964,2.752.925Zm.941,26.953l10.307-.36c1.131-.04,2.025-.411,2.681-1.114.656-.705.964-1.622.924-2.754l-.198-5.663c-.039-1.133-.41-2.025-1.114-2.681-.704-.658-1.621-.965-2.752-.925l-10.307.36c-1.132.039-2.027.409-2.681,1.114-.656.704-.965,1.621-.926,2.753l.198,5.663c.04,1.132.413,2.025,1.116,2.682.702.656,1.62.964,2.752.925Zm.962,27.518l10.307-.36c1.131-.04,2.024-.411,2.68-1.114.657-.702.965-1.622.925-2.753l-.218-6.23c-.039-1.132-.41-2.025-1.114-2.68-.704-.657-1.621-.966-2.752-.926l-10.307.36c-1.132.039-2.027.411-2.681,1.115-.656.702-.965,1.62-.925,2.752l.217,6.231c.04,1.13.413,2.025,1.115,2.68.702.656,1.621.964,2.753.925Zm48.827-59.645l-.174-4.983c-.04-1.133.269-2.049.924-2.753.656-.704,1.549-1.075,2.682-1.114l30.916-1.08c1.133-.04,2.049.268,2.753.924.704.656,1.075,1.549,1.115,2.682l.174,4.983c.04,1.132-.269,2.049-.925,2.753-.656.704-1.548,1.075-2.681,1.115l-30.916,1.08c-1.133.039-2.05-.269-2.754-.925-.702-.656-1.074-1.55-1.114-2.682Zm4.308-16.252l-.19-5.435c-.04-1.132.268-2.05.925-2.754.655-.702,1.549-1.074,2.681-1.114l22.65-.791c1.132-.04,2.049.269,2.754.925.702.656,1.074,1.549,1.114,2.681l.19,5.435c.039,1.133-.269,2.052-.924,2.755-.657.704-1.55,1.073-2.682,1.113l-22.651.791c-1.132.04-2.049-.267-2.752-.923-.705-.657-1.076-1.55-1.115-2.684Zm74.299,36.636c.147,4.229.12,7.293-.077,9.189-.199,1.896-.291,3.014-.28,3.355.011.34.098.657.261.954l1.706,3.454c.489.967,1.056.947,1.7-.059,1.655-2.399,2.913-4.731,3.78-6.991.866-2.26,1.473-3.774,1.827-4.543.621-1.683,1.724-2.553,3.309-2.609.529-.018,1.06.076,1.598.284l6.546,2.379c.995.344,1.695.924,2.102,1.74.407.82.3,2.106-.319,3.867-1.023,3.136-2.956,7.322-5.796,12.56-.499.926-1.182,1.404-2.048,1.434-.87.031-1.573-.134-2.115-.494-.542-.359-1.043-.662-1.506-.91-.461-.248-.943-.515-1.446-.8-.501-.284-1.001-.55-1.501-.799-.5-.246-1.078-.546-1.731-.902-.657-.355-1.11-.396-1.365-.123-.256.275-.068.816.567,1.624,5.06,6.4,11.733,11.309,20.015,14.722,2.451.898,2.844,2.395,1.179,4.495-2.102,2.642-3.79,5.157-5.067,7.546-.859,1.314-1.895,1.995-3.102,2.037-.303.01-.837-.124-1.602-.399-7.069-3.23-13.085-7.821-18.057-13.769-1.11-1.473-2.306-2.187-3.589-2.141-1.284.044-2.461.917-3.536,2.617-2.519,3.642-5.343,6.65-8.472,9.028-3.13,2.376-6.704,4.465-10.722,6.27-2.012.824-3.621.2-4.828-1.873-1.064-2.305-2.42-4.376-4.073-6.206-.554-.737-1.097-1.096-1.624-1.078-.529.019-.768.707-.721,2.066l.083,2.378c.04,1.133-.268,2.049-.926,2.753-.655.702-1.548,1.075-2.68,1.115l-26.613.929c-1.132.04-2.052-.269-2.754-.924-.702-.656-1.074-1.549-1.114-2.682l-.909-26.047c-.04-1.132.268-2.049.924-2.753.655-.704,1.55-1.075,2.682-1.115l26.613-.929c1.132-.04,2.049.268,2.752.924.705.656,1.076,1.55,1.116,2.682l.49,14.043c.053,1.511.524,2.57,1.414,3.181.89.613,2.007.631,3.347.053,5.215-2.147,9.312-4.935,12.294-8.367,5.527-6.163,7.892-16.413,7.089-30.748-.094-2.718,1.18-4.045,3.829-3.987l7.713.069c1.056-.036,1.917.273,2.582.931.665.657,1.017,1.514,1.055,2.57Zm-73.281-4.243l-.178-5.096c-.04-1.133.269-2.05.925-2.754.655-.702,1.549-1.074,2.68-1.114l22.763-.795c1.132-.04,2.05.269,2.755.924.702.656,1.073,1.549,1.113,2.682l.178,5.096c.04,1.132-.269,2.05-.924,2.754-.657.704-1.55,1.074-2.682,1.114l-22.763.796c-1.131.039-2.05-.269-2.753-.925-.704-.656-1.074-1.55-1.114-2.682Zm.565,16.194l-.177-5.096c-.04-1.132.268-2.05.924-2.753.655-.704,1.55-1.075,2.681-1.114l22.763-.796c1.132-.04,2.049.269,2.754.925.702.655,1.074,1.549,1.114,2.681l.177,5.096c.04,1.133-.268,2.05-.923,2.755-.657.704-1.552,1.073-2.684,1.113l-22.763.795c-1.131.04-2.049-.267-2.752-.923-.704-.657-1.075-1.55-1.115-2.684Zm14.277,27.337c.587.547,1.313.806,2.182.775.866-.03,1.575-.339,2.121-.925.546-.585.804-1.332.773-2.237l-.083-2.379c-.03-.83-.338-1.519-.923-2.065-.585-.547-1.315-.804-2.181-.774-.87.031-1.575.338-2.122.924s-.805,1.296-.775,2.126l.083,2.379c.031.905.339,1.631.925,2.177Zm28.731-36.095c-1.938.825-3.511.123-4.724-2.103-1.131-2.075-2.505-4.088-4.121-6.036-1.619-1.946-1.305-3.26.939-3.944,12.106-3.975,18.731-12.37,19.871-25.185.393-3.868.515-7.954.365-12.257-.042-1.207.265-2.164.921-2.868.656-.702,1.588-1.035,2.798-1.004l7.941.061c1.057-.038,1.916.273,2.584.932.664.657.993,1.439.988,2.346-.007.907.003,1.702.027,2.38l.067,1.925c-.002,2.116-.157,4.2-.461,6.251.039,1.132.343,2.256.91,3.37.568,1.114,1.116,1.662,1.645,1.642,1.511-.052,3.757-3.873,6.745-11.461l.514-1.491.316-.692c.689-1.912,2.027-2.526,4.018-1.84l7.232,2.582c.995.344,1.695.943,2.104,1.797.408.856.44,1.781.097,2.773-1.806,4.6-4.059,9.327-6.761,14.184-.646,1.005-1.403,1.523-2.271,1.553-.867.031-1.591-.151-2.173-.549-.58-.392-1.121-.714-1.621-.963-.501-.247-1.021-.549-1.562-.909-2.779-1.64-4.35-2.246-4.714-1.82-.363.429-.228,1.049.406,1.856,4.684,6.413,11.539,11.163,20.566,14.249,2.299.904,2.689,2.327,1.17,4.268-.868,1.091-1.554,2.058-2.053,2.906-.5.85-.947,1.604-1.338,2.257-.393.657-.768,1.295-1.124,1.91-.708,1.387-1.554,2.096-2.534,2.13-.982.034-2.088-.21-3.313-.734-1.229-.524-2.497-1.14-3.807-1.85-5.625-3.053-10.09-6.45-13.395-10.191-1.257-1.317-2.487-1.954-3.694-1.912-1.209.043-2.352.838-3.433,2.387-4.542,6.281-10.917,10.966-19.124,14.048Zm5.471-26.779c-.238.801-.746,1.406-1.524,1.811-.78.406-1.59.491-2.429.255-.841-.234-1.603-.434-2.289-.6-.687-.164-1.372-.331-2.057-.496-.687-.165-1.334-.294-1.941-.385-.61-.093-1.217-.201-1.825-.333-2.205-.301-2.964-1.558-2.287-3.776.208-.535.396-1.091.566-1.663.167-.574.46-1.434.873-2.581.883-2.828,1.481-6.29,1.792-10.383.224-2.197,1.475-3.186,3.751-2.964l7.393.65c1.062.115,1.888.5,2.479,1.159.59.659.798,1.75.624,3.267-.308,4.168-.965,8.085-1.971,11.748-.126.759-.289,1.465-.493,2.114-.205.65-.426,1.376-.66,2.178Zm-3.219,52.325l-3.899-1.224c-.683-.126-1.331-.256-1.94-.385-.609-.128-1.218-.259-1.829-.389-2.279-.375-3.001-1.54-2.162-3.497.84-1.957,1.489-3.907,1.949-5.85.46-1.944.841-3.545,1.138-4.802.296-1.257.491-2.152.585-2.685.094-.531.224-1.161.389-1.885.163-.723.593-1.342,1.295-1.858.7-.516,1.542-.716,2.531-.6l7.294,1.106c1.062.115,1.87.522,2.424,1.221.552.698.768,1.466.647,2.301-.124.838-.227,1.578-.317,2.222-.092.647-.284,1.637-.579,2.969-.293,1.333-.669,3.047-1.123,5.141-.457,2.096-.96,3.909-1.512,5.438-.966,2.682-2.595,3.607-4.892,2.779Zm-708.475-35.553c-2.782,1.713-16.461,11.058-18.768,12.794-1.751,1.318-6.778,4.482-7.12-1.631-2.298-14.103-7.628-17.768-12.104-19.09-3.75-1.107-9.164,2.288-5.103,9.154,4.126,6.974,2.906,12.51,2.946,16.704.083,8.514-.151,25.737-.151,25.737l21.168,24.291s22.365-12.471,27.362-16.01c4.645-3.289,6.498-8.108,6.406-12.301-.109-4.925-5.662-24.947-6.979-29.226.97-8.17-4.876-12.135-7.658-10.422Zm-32.96,86.216l10.626-9.26-25.4-29.146-10.626,9.26,25.4,29.146Zm29.931-131.308l-15.567-4.5,5.028,30.55,10.539-26.05Zm24.398,22.918l-4.686-14.802-19.418,16.948,24.104-2.146ZM373.851,486.291l-.118.005-.357,2.27-3.559.124-1.1-31.518,4.548-.159.291,8.344-.028,3.724c1.802-1.687,4.092-2.994,6.386-3.073,5.497-.192,8.774,4.088,9.007,10.771.261,7.474-4.058,11.901-8.962,12.072-1.977.069-4.187-.883-6.107-2.559Zm10.366-9.269c-.159-4.549-1.72-7.305-5.358-7.178-1.7.059-3.332.988-5.049,2.829l.371,10.638c1.712,1.405,3.431,1.86,4.776,1.813,3.164-.11,5.438-3.002,5.26-8.102Zm9.038,19.519l.746-3.588c.4.103,1.039.28,1.593.26,2.372-.082,3.696-1.871,4.406-4.232l.381-1.517-9.374-21.291,4.666-.163,4.424,11.05c.701,1.916,1.449,4.067,2.191,6.061l.198-.007c.484-1.997,1.002-4.193,1.486-6.189l3.089-11.313,4.429-.155-7.184,23.334c-1.537,4.725-3.722,7.93-8.309,8.089-1.107.04-1.983-.089-2.744-.34Zm44.237-24.707l20.603-.719.61,17.479-3.52.124-.058-1.662-13.683.477.061,1.74-3.401.119-.511-14.632-1.656,2.473c-.827-1-2.391-2.688-3.743-4.027l.572,16.372-3.638.127-.494-14.157c-1.487,1.636-3.022,3.035-4.565,4.198-.35-.939-1.361-2.685-1.898-3.339,4.06-2.754,8.092-7.488,10.332-12.515l-9.333.326-.116-3.322,5.062-.176-.254-7.277,3.638-.127.254,7.277,2.451-.085.628-.141,2.104,1.272c-.968,2.885-2.373,5.745-4.024,8.336,1.219.908,3.504,2.847,4.646,3.797l-.068-1.938Zm20.21-17.651l.109,3.123-20.999.733-.109-3.123,20.999-.733Zm-1.752,5.406l.328,9.411-16.846.589-.328-9.411,16.846-.589Zm-14.951,15.172l.12,3.441,5.022-.175-.12-3.441-5.022.175Zm.343,9.807l5.022-.175-.124-3.559-5.022.175.124,3.559Zm11.308-21.973l-10.163.356.128,3.678,10.163-.356-.128-3.678Zm2.032,11.689l-5.3.184.12,3.441,5.3-.184-.12-3.441Zm.343,9.807l-.124-3.559-5.3.184.124,3.559,5.3-.184Zm42.415-.927c.069,1.978-.331,3.021-1.575,3.659-1.246.598-3.181.744-6.344.855-.232-.942-.841-2.505-1.347-3.397,2.1.045,4.196-.027,4.827-.09.631-.061.862-.267.838-.94l-.929-26.613-25.586.893,1.076,30.805-3.599.126-1.197-34.285,32.783-1.146,1.053,30.133Zm-10.638-.776l-.068-1.938-11.982.418.09,2.571-3.123.109-.463-13.247,3.123-.109.267,7.631,4.271-.149-.356-10.202-9.253.323-.108-3.084,5.18-.181c-.412-1.609-1.605-4.023-2.852-5.721l2.892-1.091c1.365,1.695,2.636,4.065,3.048,5.674l-2.732,1.125,10.756-.376-2.677-.698c.85-1.732,1.943-4.464,2.431-6.341l3.632.824c-1.071,2.214-2.214,4.631-3.227,6.209l6.09-.213.108,3.085-9.926.347.356,10.202,4.35-.152-.267-7.631,3.164-.11.44,12.614-3.164.11Zm32.822-26.208c-.147.322-.332.684-.519,1.008l9.491-.332c1.107-.039,2.21-.196,2.951-.499l3.312,1.864c-.373.647-.773,1.65-1.023,2.452-.935,3.833-3.083,9.214-6.49,13.687-3.48,4.635-8.14,8.401-15.435,11.506l-3.792-3.153c7.552-2.561,12.136-6.205,15.512-10.44,2.809-3.464,5.007-8.529,5.602-11.877l-12.338.432c-2.412,3.488-5.65,7.127-9.706,10.039l-3.571-2.488c6.737-4.353,10.223-9.978,11.96-13.524.447-.807,1.062-2.452,1.338-3.61l4.64,1.343c-.75,1.213-1.526,2.785-1.934,3.591Zm32.398-.933l.463,13.247c.036,1.028.163,2.41.27,3.197l-4.547.159c.016-.674.086-2.062.046-3.209l-.463-13.247c-.025-.713-.113-2.095-.26-2.921l4.547-.159c-.05.833-.094,1.825-.056,2.933Zm18.363-.246l.246,7.039c.316,9.056-.99,12.467-3.801,15.891-2.465,3.095-6.396,5.053-9.249,6.103l-3.403-3.326c3.724-1.08,6.954-2.697,9.311-5.472,2.658-3.261,3.064-6.363,2.822-13.284l-.238-6.802c-.049-1.423-.21-2.605-.364-3.629l4.706-.165c-.043,1.031-.081,2.22-.031,3.644Zm17.678-.697l21.631-.755c1.226-.043,2.489-.167,3.55-.361l.152,4.349c-1.111-.08-2.418-.074-3.564-.033l-8.977.313.603,17.281,11.152-.389c1.266-.044,2.407-.242,3.43-.397l.159,4.548c-1.073-.122-2.617-.107-3.447-.078l-26.1.912c-1.147.04-2.411.124-3.671.326l-.159-4.548c1.194.157,2.54.189,3.687.149l10.638-.372-.603-17.281-8.344.291c-.87.031-2.49.127-3.514.281l-.152-4.349c1.033.122,2.618.145,3.528.114Zm50.825,2.937c4.024-2.674,8.087-6.498,10.665-9.797l3.432,3.048c-2.899,3.15-6.51,6.324-10.335,9.032l.573,16.411c.057,1.622.212,3.794.44,4.657l-4.903.172c.089-.874.131-3.053.074-4.675l-.48-13.761c-4.074,2.399-9.214,4.875-14.378,6.639l-2.074-3.847c6.855-2.1,12.693-4.997,16.987-7.878Zm38.799-6.978c-.148.283-.259.524-.407.807l9.531-.333c1.107-.039,2.209-.235,2.951-.539l3.272,1.865c-.332.685-.733,1.688-.981,2.489-.988,3.479-2.887,8.02-5.634,12.154,1.702,1.128,3.286,2.261,4.547,3.206l-2.805,3.583c-1.143-.99-2.689-2.164-4.356-3.412-3.386,3.959-7.97,7.603-14.331,10.28l-3.709-3.037c6.691-2.293,11.356-5.9,14.63-9.618-2.797-1.881-5.712-3.719-8.056-5.102l2.63-2.903c2.421,1.3,5.251,2.984,7.964,4.71,2.222-3.285,3.945-7.224,4.595-10.138l-12.496.436c-2.484,3.69-5.949,7.651-10.077,10.725l-3.453-2.494c6.694-4.469,10.409-10.34,12.184-13.926.445-.847,1.101-2.454,1.378-3.611l4.558,1.266c-.75,1.214-1.526,2.785-1.933,3.591Zm29.942,9.209l21.512-.751c1.898-.066,3.435-.278,4.42-.391l.172,4.903c-.872-.01-2.696-.105-4.436-.043l-21.512.751c-2.176.076-4.545.238-5.885.404l-.172-4.903c1.308.033,3.765.106,5.901.031Zm62.779-11.891l-2.22,1.067.407.301c-.265.366-.822,1.415-1.075,2.097-1.271,3.291-3.45,7.802-6.092,11.497,4.195,3.337,9.159,8.272,11.715,11.191l-3.374,3.167c-2.734-3.428-6.839-7.64-10.882-11.141-4.074,4.656-9.266,9.034-14.827,11.88l-3.321-3.248c6.322-2.636,12.087-7.628,15.849-12.115,2.585-3.098,5.083-7.542,5.924-10.659l-14.514.507c-1.541.053-3.67.326-4.301.388l-.157-4.468c.795.091,3.093.13,4.319.086l14.671-.513c1.464-.051,2.763-.255,3.427-.515l1.583,1.132c-.846-1.554-2.021-3.453-3.018-4.805l2.532-1.157c1.04,1.429,2.59,3.869,3.353,5.308Zm4.735-1.591l-2.53,1.237c-.89-1.671-2.273-3.88-3.394-5.346l2.494-1.156c1.079,1.428,2.669,3.866,3.43,5.265Z"/></g></svg>